<?xml version="1.0" standalone="no"?>
<!DOCTYPE svg PUBLIC "-//W3C//DTD SVG 20010904//EN"
 "http://www.w3.org/TR/2001/REC-SVG-20010904/DTD/svg10.dtd">
<svg version="1.0" xmlns="http://www.w3.org/2000/svg"
 width="224.000000pt" height="220.000000pt" viewBox="0 0 224.000000 220.000000"
 preserveAspectRatio="xMidYMid meet">

<g transform="translate(0.000000,220.000000) scale(0.100000,-0.100000)"
fill="#f6e9e9" stroke="none">
<path d="M1013 2058 c-121 -9 -285 -63 -390 -128 -324 -200 -495 -540 -461
-915 36 -400 336 -741 734 -836 106 -25 295 -28 399 -5 205 44 359 130 506
282 93 98 160 205 204 327 44 123 57 199 56 332 -1 414 -266 776 -661 903
-125 40 -238 52 -387 40z m269 -82 c293 -56 542 -263 649 -539 76 -197 80
-428 11 -627 -80 -231 -275 -432 -504 -520 -112 -44 -204 -60 -332 -60 -109 0
-114 1 -181 36 -78 40 -151 106 -195 174 -81 128 -81 332 1 461 34 54 121 139
165 162 54 28 168 55 236 56 110 2 224 55 298 138 154 173 148 436 -13 597
-60 60 -114 91 -202 117 -75 22 -37 25 67 5z m-115 -368 c51 -48 15 -138 -56
-138 -47 0 -81 32 -81 79 0 72 84 109 137 59z"/>
<path d="M1085 740 c-77 -30 -57 -143 25 -143 41 0 73 32 73 73 0 50 -53 88
-98 70z"/>
</g>
</svg>
